<svg xmlns="http://www.w3.org/2000/svg" viewBox="0 0 500.69 265.29"><defs><style>.cls-1,.cls-10{fill:none;stroke:#fff;stroke-miterlimit:10;stroke-width:1.78px;}.cls-2{font-size:35.62px;fill:#c4c4c4;font-family:PlayfairDisplay-Black, Playfair Display;letter-spacing:0.03em;}.cls-3{letter-spacing:0.02em;}.cls-4{letter-spacing:0.03em;}.cls-5{letter-spacing:0.01em;}.cls-6{letter-spacing:0em;}.cls-7,.cls-8,.cls-9{font-size:16.03px;font-family:Poppins-Regular, Poppins;}.cls-7,.cls-8{fill:#c6c6c6;}.cls-7{letter-spacing:0.37em;}.cls-8{letter-spacing:0.37em;}.cls-13,.cls-9{fill:#b29bc6;}.cls-9{letter-spacing:0.25em;}.cls-10{stroke-dasharray:8.9 8.9;}.cls-11{fill:#d39985;}.cls-12{fill:#94a5d6;}</style></defs><title>Asset 3</title><g id="Layer_2" data-name="Layer 2"><g id="Ebene_1" data-name="Ebene 1"><line class="cls-1" x1="16.36" y1="49.06" x2="16.36" y2="218.22"/><text class="cls-2" transform="translate(69.78 30.42)">Ca<tspan class="cls-3" x="46.57" y="0">ro</tspan><tspan class="cls-4" x="85.66" y="0">lina Gabadian</tspan></text><text class="cls-2" transform="translate(69.78 256.56)">Delfina<tspan class="cls-5" x="129.99" y="0"> </tspan><tspan class="cls-6" x="138.19" y="0">T</tspan><tspan x="162.95" y="0">aboada</tspan></text><text class="cls-7" transform="translate(72.15 73.99)">24</text><text class="cls-7" transform="translate(171.86 73.99)">JÓVEN</text><text class="cls-8" transform="translate(321.06 73.99)">UNIVERSIDAD</text><text class="cls-7" transform="translate(72.79 191.51)">23</text><text class="cls-7" transform="translate(171.86 191.51)">JÓVEN</text><text class="cls-8" transform="translate(321.06 191.51)">UNIVERSIDAD</text><text class="cls-9" transform="translate(69 126.47)">EDAD</text><text class="cls-9" transform="translate(172.27 126.47)">ETAPA</text><text class="cls-9" transform="translate(321.84 126.47)">ACADÉMICO</text><line class="cls-10" x1="500.69" y1="146.99" x2="65.32" y2="146.99"/><line class="cls-10" x1="500.69" y1="97.14" x2="65.32" y2="97.14"/><path class="cls-11" d="M.11,13.29c1.71-9.11,10.4,0,12.16,7.34,0,0-1.79-15.17,3.86-15.18C24.37,5.42,21.37,21,21.37,21s5.33-15.18,11.25-8.7C37,17.09,23.14,33.6,16.2,33.62S-1.19,20.22.11,13.29Z"/><path class="cls-12" d="M.11,240c1.71-9.11,10.4,0,12.16,7.34,0,0-1.79-15.17,3.86-15.18,8.24,0,5.24,15.59,5.24,15.59s5.33-15.18,11.25-8.7c4.35,4.76-9.48,21.27-16.42,21.29S-1.19,247,.11,240Z"/><path class="cls-13" d="M.11,118.34c1.71-9.11,10.4,0,12.16,7.34,0,0-1.79-15.17,3.86-15.18,8.24,0,5.24,15.59,5.24,15.59s5.33-15.18,11.25-8.7c4.35,4.76-9.48,21.27-16.42,21.29S-1.19,125.28.11,118.34Z"/></g></g></svg>